<?xml version="1.0" encoding="UTF-8"?>
<svg width="285px" height="52px" viewBox="0 0 285 52" version="1.1" xmlns="http://www.w3.org/2000/svg" xmlns:xlink="http://www.w3.org/1999/xlink">
    <!-- Generator: Sketch 51.2 (57519) - http://www.bohemiancoding.com/sketch -->
    <title>Group</title>
    <desc>Created with Sketch.</desc>
    <defs></defs>
    <g id="Megasynt" stroke="none" stroke-width="1" fill="none" fill-rule="evenodd">
        <g id="Megasynt-3" transform="translate(-384.000000, -200.000000)">
            <g id="Group-2">
                <g id="Group" transform="translate(384.000000, 200.000000)">
                    <g id="Megasynt---исходник-Copy">
                        <g id="Group-300" transform="translate(0.000000, 0.280000)">
                            <path d="M95.7627,31.7217 C96.1427,30.8987 96.5137,30.0427 96.8787,29.1567 C97.2417,28.2697 97.5987,27.4157 97.9477,26.5917 L103.0307,14.9067 L105.7377,8.6847 L115.5217,8.6847 L115.5217,12.3417 L112.5757,12.3417 L112.5757,37.5637 L115.5217,37.5637 L115.5217,41.2217 L104.4077,41.2217 L104.4077,37.5637 L107.3047,37.5637 L107.3047,16.0947 L107.2097,16.0947 L105.3097,20.5587 C104.8027,21.7317 104.3037,22.9027 103.8137,24.0747 C103.3227,25.2457 102.8077,26.4177 102.2697,27.5887 C101.5407,29.1727 100.8367,30.7477 100.1567,32.3147 C99.4747,33.8817 98.7857,35.4737 98.0897,37.0887 L93.1497,37.0887 C92.4207,35.4737 91.6847,33.8677 90.9417,32.2677 C90.1977,30.6687 89.4597,29.0607 88.7327,27.4457 L85.5497,20.2737 L83.7447,16.0947 L83.6027,16.0947 C83.6027,19.6967 83.5937,23.2747 83.5777,26.8287 C83.5637,30.3837 83.5557,33.9617 83.5557,37.5637 L86.6427,37.5637 L86.6427,41.2217 L75.4807,41.2217 L75.4807,37.5637 L78.6157,37.5637 L78.6157,12.3417 L75.4807,12.3417 L75.4807,8.6847 L85.4087,8.6847 C85.8507,9.6027 86.3337,10.6407 86.8567,11.7957 C87.3787,12.9517 87.9247,14.1947 88.4937,15.5247 C89.2237,17.1387 89.9677,18.8257 90.7277,20.5827 C91.4877,22.3407 92.2317,24.0587 92.9597,25.7367 C93.4657,26.8457 93.9337,27.9137 94.3617,28.9427 C94.7877,29.9717 95.1757,30.8987 95.5257,31.7217 L95.7627,31.7217 Z" id="Fill-188" fill="#FFFFFE"></path>
                            <path d="M128.7207,21.1289 C127.8017,21.1289 127.0107,21.3129 126.3457,21.6799 C125.6807,22.0459 125.1347,22.5249 124.7067,23.1149 C124.2797,23.7059 123.9477,24.3759 123.7087,25.1259 C123.4727,25.8759 123.3367,26.6329 123.3057,27.3989 L133.6597,27.3989 C133.6287,26.5379 133.5327,25.7319 133.3757,24.9829 C133.2167,24.2329 132.9487,23.5699 132.5677,22.9959 C132.1887,22.4209 131.6897,21.9669 131.0717,21.6309 C130.4537,21.2969 129.6707,21.1289 128.7207,21.1289 M128.7687,17.4719 C131.0157,17.4719 132.7817,17.8919 134.0647,18.7309 C135.3467,19.5699 136.3127,20.5829 136.9617,21.7699 C137.6107,22.9579 138.0137,24.1859 138.1727,25.4519 C138.3307,26.7189 138.4097,27.7789 138.4097,28.6339 L138.4097,30.9139 L123.2107,30.9139 C123.2107,31.9589 123.3057,32.9089 123.4957,33.7639 C123.6857,34.6179 124.0187,35.3479 124.4927,35.9489 C124.9687,36.5499 125.6097,37.0179 126.4167,37.3499 C127.2247,37.6829 128.2297,37.8479 129.4327,37.8479 C130.7637,37.8479 131.9817,37.7229 133.0907,37.4679 C134.1997,37.2149 135.3857,36.8199 136.6537,36.2809 L137.9357,39.4629 C136.4787,40.2239 134.9827,40.7779 133.4467,41.1259 C131.9097,41.4739 130.3667,41.6489 128.8157,41.6489 C126.6307,41.6489 124.8497,41.3159 123.4727,40.6509 C122.0947,39.9859 121.0017,39.0999 120.1957,37.9909 C119.3867,36.8829 118.8327,35.6089 118.5327,34.1679 C118.2307,32.7269 118.0807,31.2309 118.0807,29.6789 C118.0807,28.5389 118.2237,27.2649 118.5087,25.8559 C118.7927,24.4469 119.3307,23.1159 120.1227,21.8649 C120.9137,20.6149 122.0067,19.5699 123.4007,18.7309 C124.7937,17.8919 126.5827,17.4719 128.7687,17.4719" id="Fill-190" fill="#FFFFFE"></path>
                            <path d="M157.5518,25.6885 C157.5518,25.2145 157.4728,24.7085 157.3148,24.1685 C157.1558,23.6305 156.8868,23.1315 156.5068,22.6725 C156.1268,22.2145 155.6128,21.8345 154.9628,21.5325 C154.3138,21.2325 153.4978,21.0815 152.5178,21.0815 C150.9028,21.0815 149.6828,21.5015 148.8598,22.3405 C148.0358,23.1795 147.6248,24.3115 147.6248,25.7365 C147.6248,27.1305 148.0208,28.2225 148.8118,29.0135 C149.6038,29.8055 150.7118,30.2015 152.1368,30.2015 C153.6888,30.2015 154.9788,29.8295 156.0078,29.0845 C157.0358,28.3405 157.5518,27.2095 157.5518,25.6885 Z M149.0498,40.2235 C148.7648,40.3185 148.4718,40.4925 148.1708,40.7465 C147.8688,41.0005 147.6008,41.2925 147.3638,41.6245 C147.1258,41.9575 146.9368,42.3205 146.7938,42.7165 C146.6518,43.1125 146.5798,43.5005 146.5798,43.8805 C146.5798,44.3555 146.6668,44.8315 146.8408,45.3055 C147.0148,45.7805 147.3228,46.1925 147.7668,46.5415 C148.2098,46.8885 148.8198,47.1735 149.5958,47.3965 C150.3708,47.6175 151.3768,47.7285 152.6128,47.7285 C154.7008,47.7285 156.2768,47.3725 157.3378,46.6595 C158.3988,45.9465 158.9288,45.0215 158.9288,43.8805 C158.9288,43.4375 158.8498,43.0015 158.6928,42.5745 C158.5328,42.1465 158.2648,41.7585 157.8838,41.4105 C157.5048,41.0635 157.0058,40.7775 156.3878,40.5565 C155.7708,40.3345 155.0028,40.2235 154.0838,40.2235 L149.0498,40.2235 Z M161.1148,20.8915 C161.6198,21.4615 162.0088,22.1905 162.2788,23.0765 C162.5468,23.9625 162.6818,24.8505 162.6818,25.7365 C162.6818,27.0355 162.4198,28.1745 161.8978,29.1565 C161.3758,30.1385 160.6628,30.9685 159.7608,31.6495 C158.8588,32.3315 157.7898,32.8545 156.5548,33.2165 C155.3198,33.5825 153.9728,33.7635 152.5178,33.7635 L149.9058,33.7635 C148.7958,33.7635 147.9568,33.8735 147.3868,34.0905 C146.8168,34.3095 146.5318,34.7305 146.5318,35.3545 C146.5318,36.3205 147.2608,36.8035 148.7168,36.8035 L154.9878,36.8035 C157.8668,36.8035 160.1168,37.3835 161.7318,38.5435 C163.3468,39.7025 164.1548,41.4415 164.1548,43.7605 C164.1548,44.8725 163.9078,45.8965 163.4178,46.8345 C162.9268,47.7715 162.1668,48.5895 161.1378,49.2895 C160.1088,49.9865 158.8258,50.5355 157.2908,50.9325 C155.7538,51.3295 153.9428,51.5275 151.8528,51.5275 C149.8578,51.5275 148.2008,51.3455 146.8878,50.9815 C145.5738,50.6165 144.5218,50.1425 143.7298,49.5555 C142.9388,48.9685 142.3838,48.2795 142.0678,47.4875 C141.7498,46.6945 141.5918,45.8705 141.5918,45.0155 C141.5918,43.6845 141.9158,42.5435 142.5668,41.5925 C143.2148,40.6425 143.9038,39.9615 144.6318,39.5485 C143.7128,39.3585 143.0178,38.9475 142.5418,38.3155 C142.0678,37.6835 141.8298,36.9085 141.8298,35.9905 C141.8298,35.3275 141.9558,34.7655 142.2098,34.3075 C142.4628,33.8485 142.7808,33.4605 143.1588,33.1445 C143.5388,32.8285 143.9588,32.5765 144.4188,32.3865 C144.8768,32.1955 145.3268,32.0535 145.7728,31.9585 C144.9168,31.5785 144.1568,30.9055 143.4918,29.9395 C142.8268,28.9745 142.4938,27.6355 142.4938,25.9265 C142.4938,24.4055 142.7808,23.1085 143.3508,22.0315 C143.9198,20.9555 144.6718,20.0765 145.6058,19.3955 C146.5388,18.7145 147.6008,18.2155 148.7878,17.8985 C149.9758,17.5835 151.1708,17.4245 152.3738,17.4245 C153.1978,17.4245 154.0138,17.4805 154.8208,17.5905 C155.6278,17.7015 156.3478,17.8365 156.9818,17.9945 L164.8198,17.9945 L164.8198,20.7965 L161.2558,20.7965 L161.1148,20.8915 Z" id="Fill-192" fill="#FFFFFE"></path>
                            <path d="M176.1406,30.7715 C174.8106,30.8665 173.7966,31.2515 173.1006,31.9265 C172.4046,32.6045 172.0556,33.4295 172.0556,34.4045 C172.0556,35.6315 172.3566,36.5365 172.9586,37.1185 C173.5596,37.7005 174.5416,37.9915 175.9036,37.9915 C176.7576,37.9915 177.6846,37.7715 178.6816,37.3315 C179.6796,36.8905 180.5576,36.3085 181.3186,35.5845 L181.3186,30.3915 L176.1406,30.7715 Z M186.2096,37.6585 L189.8206,37.6585 L190.1056,40.5075 C189.7876,40.6975 189.3926,40.8575 188.9176,40.9835 C188.4436,41.1105 187.9516,41.2135 187.4456,41.2925 C186.9386,41.3715 186.4486,41.4265 185.9726,41.4585 C185.4976,41.4895 185.1016,41.5065 184.7856,41.5065 C183.8676,41.5065 183.1156,41.3295 182.5296,40.9765 C181.9436,40.6235 181.6346,39.8195 181.6036,38.5685 C181.5716,38.5685 181.5556,38.5615 181.5556,38.5445 C181.5556,38.5275 181.5396,38.5205 181.5076,38.5205 C180.6536,39.2905 179.8286,39.8835 179.0376,40.3005 C178.2456,40.7175 177.5106,41.0305 176.8286,41.2395 C176.1486,41.4465 175.5386,41.5675 175.0006,41.6005 C174.4616,41.6315 174.0196,41.6485 173.6706,41.6485 C172.2776,41.6485 171.1376,41.4265 170.2506,40.9835 C169.3646,40.5405 168.6596,39.9855 168.1376,39.3205 C167.6146,38.6555 167.2586,37.9285 167.0686,37.1355 C166.8786,36.3455 166.7836,35.6155 166.7836,34.9515 C166.7836,34.0015 166.9506,33.1305 167.2826,32.3385 C167.6146,31.5475 168.1446,30.8515 168.8726,30.2495 C169.6016,29.6475 170.5366,29.1485 171.6756,28.7525 C172.8166,28.3575 174.1936,28.1105 175.8086,28.0165 L181.4126,27.6355 L181.4126,26.2585 C181.4126,24.5175 181.0796,23.2835 180.4146,22.5535 C179.7506,21.8255 178.5316,21.4615 176.7576,21.4615 C175.6186,21.4615 174.4216,21.5725 173.1716,21.7935 C171.9206,22.0155 170.7426,22.3165 169.6336,22.6965 C169.4756,22.1585 169.3176,21.6205 169.1586,21.0815 C168.9996,20.5435 168.8416,20.0055 168.6836,19.4655 C170.0136,18.8645 171.5096,18.4055 173.1716,18.0895 C174.8336,17.7725 176.4256,17.6135 177.9466,17.6135 C180.5416,17.6135 182.5686,18.1925 184.0256,19.3485 C185.4826,20.5035 186.2096,22.5385 186.2096,25.4515 L186.2096,37.6585 Z" id="Fill-194" fill="#FFFFFE"></path>
                            <path d="M196.4795,34.1436 L196.6225,37.0886 C197.2555,37.4376 198.0145,37.6826 198.9025,37.8246 C199.7885,37.9666 200.5955,38.0386 201.3255,38.0386 C202.7505,38.0386 203.9605,37.8096 204.9585,37.3506 C205.9565,36.8916 206.4555,36.0906 206.4555,34.9516 C206.4555,34.3816 206.3355,33.9056 206.0985,33.5266 C205.8615,33.1456 205.5365,32.8216 205.1255,32.5516 C204.7125,32.2846 204.2295,32.0536 203.6755,31.8636 C203.1225,31.6736 202.5435,31.4836 201.9425,31.2936 C200.8655,30.9776 199.8045,30.6606 198.7595,30.3436 C197.7145,30.0276 196.7805,29.6156 195.9585,29.1086 C195.1335,28.6026 194.4685,27.9766 193.9625,27.2326 C193.4555,26.4886 193.2015,25.5306 193.2015,24.3586 C193.2015,23.1556 193.4315,22.1266 193.8905,21.2716 C194.3495,20.4166 194.9835,19.7116 195.7915,19.1586 C196.5985,18.6046 197.5645,18.1926 198.6885,17.9226 C199.8115,17.6546 201.0405,17.5196 202.3695,17.5196 C203.7305,17.5196 205.0835,17.6546 206.4305,17.9226 C207.7765,18.1926 208.9725,18.6436 210.0165,19.2766 C210.0165,20.1956 210.0245,21.1216 210.0415,22.0556 C210.0565,22.9886 210.0805,23.9316 210.1125,24.8816 L206.3595,24.8816 L206.2645,21.8336 C205.1875,21.3956 204.0005,21.1756 202.7015,21.1756 C201.4985,21.1756 200.4775,21.4056 199.6385,21.8636 C198.7985,22.3216 198.3795,23.1036 198.3795,24.2086 C198.3795,24.6836 198.5295,25.0866 198.8315,25.4176 C199.1315,25.7496 199.5115,26.0346 199.9705,26.2706 C200.4295,26.5076 200.9135,26.7056 201.4195,26.8626 C201.9255,27.0206 202.4005,27.1636 202.8445,27.2896 C203.7945,27.5746 204.7925,27.8676 205.8365,28.1666 C206.8815,28.4666 207.8395,28.8856 208.7105,29.4226 C209.5815,29.9596 210.2935,30.6636 210.8475,31.5306 C211.4025,32.3996 211.6795,33.5446 211.6795,34.9666 C211.6795,36.1036 211.4415,37.0916 210.9665,37.9286 C210.4915,38.7666 209.8185,39.4536 208.9485,39.9906 C208.0765,40.5276 207.0255,40.9306 205.7895,41.1986 C204.5545,41.4656 203.1925,41.6016 201.7045,41.6016 C200.3425,41.6016 198.8545,41.4816 197.2405,41.2456 C195.6255,41.0066 194.1835,40.5246 192.9165,39.7956 L192.8225,34.1436 L196.4795,34.1436 Z" id="Fill-196" fill="#FFFFFE"></path>
                            <path d="M225.7432,36.3525 C226.0122,35.5445 226.3202,34.5955 226.6702,33.5025 C227.0172,32.4105 227.3972,31.2375 227.8092,29.9865 C228.2212,28.7365 228.6082,27.5485 228.9732,26.4245 C229.3362,25.3005 229.6612,24.3035 229.9472,23.4325 C230.2312,22.5615 230.4372,21.9675 230.5642,21.6515 L227.7622,21.6515 L227.7622,17.9945 L237.6412,17.9945 L237.6412,21.6515 L235.3142,21.6515 L226.8592,46.2555 C226.5432,47.0795 226.2012,47.8075 225.8382,48.4405 C225.4732,49.0735 225.0382,49.6045 224.5322,50.0325 C224.0252,50.4595 223.4162,50.7915 222.7032,51.0295 C221.9912,51.2665 221.1122,51.3855 220.0672,51.3855 C219.7192,51.3855 219.0542,51.3455 218.0722,51.2665 C217.0912,51.1875 215.9502,50.9415 214.6522,50.5305 L215.4122,46.5405 C216.1082,46.6985 216.7732,46.8175 217.4072,46.8965 C218.0402,46.9765 218.6262,47.0155 219.1652,47.0155 C219.9252,47.0155 220.5182,46.9205 220.9462,46.7305 C221.3732,46.5405 221.7292,46.2155 222.0142,45.7565 C222.3002,45.2975 222.5852,44.6805 222.8692,43.9045 C223.1542,43.1285 223.5342,42.1395 224.0102,40.9355 L221.4922,40.9355 C220.4472,37.7375 219.4092,34.5475 218.3812,31.3645 C217.3512,28.1825 216.3142,24.9765 215.2692,21.7465 L212.8942,21.7465 L212.8942,17.9945 L219.0212,17.9945 C219.1482,18.3745 219.3702,19.0945 219.6872,20.1545 C220.0042,21.2165 220.3762,22.4515 220.8042,23.8605 C221.2302,25.2695 221.6812,26.7505 222.1572,28.3015 C222.6322,29.8525 223.0672,31.3015 223.4632,32.6475 C223.8592,33.9945 224.1992,35.1495 224.4842,36.1145 C224.7692,37.0815 224.9432,37.6745 225.0072,37.8955 L225.2442,37.8955 C225.3072,37.6745 225.4732,37.1595 225.7432,36.3525" id="Fill-198" fill="#FFFFFE"></path>
                            <path d="M256.3701,17.4717 C258.0491,17.4717 259.3631,17.7487 260.3131,18.3027 C261.2641,18.8577 261.9671,19.5297 262.4271,20.3217 C262.8861,21.1137 263.1711,21.9607 263.2821,22.8627 C263.3921,23.7647 263.4481,24.5487 263.4481,25.2147 L263.4481,37.6117 L266.9631,37.6117 L266.9631,40.6037 C266.2981,40.9207 265.5061,41.1497 264.5881,41.2927 C263.6691,41.4347 262.8931,41.5067 262.2611,41.5067 C261.3101,41.5067 260.5821,41.3547 260.0751,41.0547 C259.5681,40.7537 259.1881,40.3977 258.9351,39.9857 C258.6821,39.5757 258.5321,39.1627 258.4841,38.7507 C258.4361,38.3397 258.4131,38.0067 258.4131,37.7537 L258.4131,26.1637 C258.4131,25.3727 258.3651,24.6917 258.2701,24.1207 C258.1761,23.5507 258.0011,23.0767 257.7481,22.6967 C257.4941,22.3167 257.1141,22.0317 256.6081,21.8407 C256.1011,21.6517 255.4511,21.5557 254.6601,21.5557 C253.6791,21.5557 252.6101,21.7787 251.4541,22.2217 C250.2981,22.6647 249.2771,23.1557 248.3911,23.6937 L248.3911,41.2217 L243.3561,41.2217 L243.3561,21.6047 L240.0311,21.6047 L240.0311,17.9937 L248.3911,17.9937 L248.3911,20.0367 L248.6291,20.0837 C249.9581,19.2287 251.2881,18.5807 252.6181,18.1367 C253.9481,17.6937 255.1991,17.4717 256.3701,17.4717" id="Fill-200" fill="#FFFFFE"></path>
                            <path d="M276.2637,11.8672 L276.2637,17.9942 L283.1517,17.9942 L283.1517,21.6522 L276.2167,21.6522 L276.2167,33.7272 C276.2167,34.3272 276.2557,34.8562 276.3357,35.3142 C276.4137,35.7722 276.5657,36.1582 276.7857,36.4742 C277.0077,36.7902 277.3257,37.0342 277.7377,37.2082 C278.1487,37.3822 278.7017,37.4682 279.3997,37.4682 C279.9377,37.4682 280.5627,37.4212 281.2757,37.3262 C281.9877,37.2312 282.7867,37.0572 283.6737,36.8042 L284.4337,40.2232 C283.5147,40.6362 282.4927,40.9522 281.3707,41.1742 C280.2457,41.3942 279.1937,41.5062 278.2117,41.5062 C276.8817,41.5062 275.7607,41.3642 274.8497,41.0802 C273.9387,40.7952 273.2117,40.3852 272.6687,39.8472 C272.1247,39.3102 271.7417,38.6632 271.5177,37.9052 C271.2927,37.1462 271.1817,36.2942 271.1817,35.3462 L271.1817,21.6522 L267.8577,21.6522 L267.8577,18.7672 L271.4217,17.6612 L272.8607,12.2942 L276.2637,11.8672 Z" id="Fill-202" fill="#FFFFFE"></path>
                            <path d="M41.266,41.528 C40.26,41.126 39.548,40.143 39.548,38.995 L39.548,19.773 C39.548,16.432 37.615,13.533 34.807,12.136 L40.347,6.597 C40.862,6.082 41.546,5.799 42.274,5.799 C43.778,5.799 44.999,7.021 44.999,8.524 L44.999,27.746 C44.999,30.483 46.46,33.078 49.073,33.721 L41.266,41.528 Z M33.75,31.137 L28.298,36.588 L28.298,19.773 C28.298,18.271 29.522,17.048 31.024,17.048 C32.528,17.048 33.75,18.271 33.75,19.773 L33.75,31.137 Z M22.5,19.773 L22.5,38.995 C22.5,40.498 21.278,41.72 19.775,41.72 C18.272,41.72 17.049,40.498 17.049,38.995 L17.049,19.773 C17.049,16.432 15.115,13.534 12.307,12.138 L17.847,6.597 C18.363,6.082 19.047,5.799 19.775,5.799 C21.278,5.799 22.5,7.021 22.5,8.524 L22.5,19.773 Z M11.251,34.431 L5.799,39.883 L5.799,19.773 C5.799,18.271 7.022,17.048 8.525,17.048 C10.028,17.048 11.251,18.271 11.251,19.773 L11.251,34.431 Z M56.715,30.471 L53.524,30.471 C52.021,30.471 50.797,29.249 50.797,27.746 L50.797,8.524 C50.797,3.824 46.974,0 42.274,0 C39.997,0 37.857,0.887 36.246,2.497 L28.298,10.445 L28.298,8.524 C28.298,3.824 24.475,0 19.775,0 C17.497,0 15.358,0.887 13.747,2.497 L2.497,13.746 L2.5,13.75 C0.958,15.293 0,17.424 0,19.773 L0,47.519 L4.101,47.519 L11.346,40.272 C11.965,44.369 15.508,47.519 19.775,47.519 C22.124,47.519 24.256,46.563 25.799,45.019 L25.802,45.022 L33.75,37.073 L33.75,38.995 C33.75,43.695 37.574,47.519 42.274,47.519 L43.474,47.519 L56.715,34.278 L56.715,30.471 Z" id="Fill-204" fill="#BC814C"></path>
                        </g>
                    </g>
                </g>
            </g>
        </g>
    </g>
</svg>