<?xml version="1.0" encoding="UTF-8"?>
<svg width="57px" height="68px" viewBox="0 0 57 68" version="1.1" xmlns="http://www.w3.org/2000/svg" xmlns:xlink="http://www.w3.org/1999/xlink">
    <!-- Generator: Sketch 51.2 (57519) - http://www.bohemiancoding.com/sketch -->
    <title>Logo</title>
    <desc>Created with Sketch.</desc>
    <defs></defs>
    <g id="Megasynt" stroke="none" stroke-width="1" fill="none" fill-rule="evenodd">
        <g id="Megasynt-3" transform="translate(-122.000000, -2371.000000)">
            <g id="Group-9" transform="translate(122.000000, 2370.000000)">
                <g id="Logo" transform="translate(0.000000, 1.000000)">
                    <g id="Group-7" transform="translate(0.000000, 55.000000)" fill="#9A9A9A">
                        <path d="M5.50788889,7.02184375 C5.61133333,6.797125 5.71213889,6.563375 5.81083333,6.32059375 C5.91005556,6.078875 6.00663889,5.84459375 6.10163889,5.61934375 L7.48125,2.42546875 L8.21697222,0.7249375 L10.8738056,0.7249375 L10.8738056,1.72475 L10.0742222,1.72475 L10.0742222,8.61878125 L10.8738056,8.61878125 L10.8738056,9.61859375 L7.85544444,9.61859375 L7.85544444,8.61878125 L8.64236111,8.61878125 L8.64236111,2.7500625 L8.61702778,2.7500625 L8.10086111,3.97034375 C7.96311111,4.29121875 7.82747222,4.61103125 7.69447222,4.931375 C7.56094444,5.25171875 7.42108333,5.5720625 7.27488889,5.89240625 C7.07697222,6.32484375 6.88538889,6.7556875 6.70119444,7.183875 C6.51594444,7.61259375 6.32911111,8.0476875 6.14016667,8.48915625 L4.79855556,8.48915625 C4.60063889,8.0476875 4.40061111,7.60834375 4.199,7.171125 C3.99686111,6.73390625 3.79683333,6.2945625 3.59891667,5.85309375 L2.73441667,3.89278125 L2.24463889,2.7500625 L2.20558333,2.7500625 C2.20558333,3.735 2.20347222,4.71303125 2.19925,5.68415625 C2.19502778,6.65634375 2.19291667,7.634375 2.19291667,8.61878125 L3.03155556,8.61878125 L3.03155556,9.61859375 L0,9.61859375 L0,8.61878125 L0.851305556,8.61878125 L0.851305556,1.72475 L0,1.72475 L0,0.7249375 L2.69641667,0.7249375 C2.81622222,0.97621875 2.94763889,1.259375 3.08908333,1.57546875 C3.23158333,1.89103125 3.37988889,2.2305 3.534,2.59440625 C3.73244444,3.035875 3.93458333,3.49646875 4.14041667,3.97725 C4.34730556,4.4575 4.54891667,4.927125 4.74683333,5.38559375 C4.88405556,5.6889375 5.01177778,5.981125 5.12736111,6.26215625 C5.24347222,6.54371875 5.3485,6.797125 5.4435,7.02184375 L5.50788889,7.02184375 Z" id="Fill-21"></path>
                        <path d="M14.5006944,4.381 C14.2510556,4.381 14.03625,4.43146875 13.85575,4.53134375 C13.67525,4.63175 13.5269444,4.7624375 13.4108333,4.9239375 C13.2947222,5.0854375 13.2039444,5.26871875 13.1395556,5.47378125 C13.0751667,5.6783125 13.0382222,5.8855 13.0297778,6.0948125 L15.8423056,6.0948125 C15.8333333,5.86 15.808,5.63953125 15.7647222,5.4339375 C15.7214444,5.22940625 15.6486111,5.04771875 15.5451667,4.891 C15.44225,4.73428125 15.3071389,4.6105 15.1393056,4.5180625 C14.9714722,4.4266875 14.7587778,4.381 14.5006944,4.381 M14.5133611,3.3811875 C15.124,3.3811875 15.6032222,3.4959375 15.9520833,3.7254375 C16.3004167,3.9549375 16.5621944,4.23171875 16.7384722,4.5563125 C16.91475,4.88090625 17.0245278,5.21665625 17.0672778,5.5625 C17.1105556,5.908875 17.1316667,6.1989375 17.1316667,6.43215625 L17.1316667,7.05584375 L13.0044444,7.05584375 C13.0044444,7.341125 13.0297778,7.60090625 13.0820278,7.83465625 C13.13375,8.06840625 13.2234722,8.267625 13.3527778,8.43178125 C13.4815556,8.59646875 13.6557222,8.72396875 13.8752778,8.8148125 C14.0943056,8.90565625 14.3671667,8.95134375 14.6943889,8.95134375 C15.0553889,8.95134375 15.3857778,8.9168125 15.6871389,8.84721875 C15.9879722,8.77815625 16.3104444,8.6703125 16.6550833,8.522625 L17.0028889,9.3928125 C16.6070556,9.60053125 16.2011944,9.7519375 15.78425,9.84703125 C15.3667778,9.942125 14.9477222,9.99046875 14.5265556,9.99046875 C13.9328056,9.99046875 13.4493611,9.89909375 13.0751667,9.716875 C12.7009722,9.5351875 12.4048889,9.29346875 12.1853333,8.990125 C11.9657778,8.6873125 11.8158889,8.33934375 11.7335556,7.944625 C11.6522778,7.55096875 11.6111111,7.14190625 11.6111111,6.71796875 C11.6111111,6.40665625 11.6501667,6.05815625 11.7272222,5.673 C11.8048056,5.28784375 11.9504722,4.92446875 12.1658056,4.58234375 C12.3806111,4.24075 12.6772222,3.9549375 13.0561667,3.7254375 C13.4340556,3.4959375 13.9201389,3.3811875 14.5133611,3.3811875" id="Fill-23"></path>
                        <path d="M22.2785556,5.6400625 C22.2785556,5.50990625 22.2569167,5.37178125 22.2141667,5.224625 C22.1708889,5.07746875 22.0980556,4.94146875 21.9946111,4.8155625 C21.8916944,4.6901875 21.7518333,4.58659375 21.5755556,4.50425 C21.3992778,4.42190625 21.1776111,4.38046875 20.9110833,4.38046875 C20.4730278,4.38046875 20.1415833,4.49575 19.9183333,4.72471875 C19.6945556,4.95421875 19.5831944,5.26340625 19.5831944,5.6528125 C19.5831944,6.03425 19.6903333,6.33228125 19.9051389,6.54903125 C20.1199444,6.76525 20.4207778,6.873625 20.8081667,6.873625 C21.2293333,6.873625 21.5797778,6.771625 21.8589722,6.5686875 C22.1386944,6.36521875 22.2785556,6.0555 22.2785556,5.6400625 Z M19.9695278,9.61328125 C19.8924722,9.63878125 19.8127778,9.687125 19.7309722,9.7561875 C19.6491667,9.82525 19.5763333,9.9049375 19.5119444,9.99578125 C19.4475556,10.0871562 19.3958333,10.1865 19.3573056,10.294875 C19.3187778,10.4027187 19.2987222,10.5089687 19.2987222,10.6125625 C19.2987222,10.7427187 19.3224722,10.8723437 19.3694444,11.0019687 C19.4169444,11.1315937 19.5008611,11.2442187 19.6211944,11.3398437 C19.7415278,11.4349375 19.90725,11.5130312 20.1183611,11.5735937 C20.3289444,11.6341562 20.6018056,11.6644375 20.9369444,11.6644375 C21.5043056,11.6644375 21.9323333,11.5672187 22.2205,11.37225 C22.5086667,11.1772812 22.6522222,10.9244062 22.6522222,10.6125625 C22.6522222,10.4914375 22.6305833,10.3724375 22.5883611,10.2555625 C22.5450833,10.1386875 22.4717222,10.0324375 22.3688056,9.937875 C22.2658889,9.84278125 22.13025,9.7646875 21.9624167,9.70359375 C21.7951111,9.6435625 21.5861111,9.61328125 21.337,9.61328125 L19.9695278,9.61328125 Z M23.2459722,4.32840625 C23.3831944,4.48459375 23.48875,4.6838125 23.5615833,4.9260625 C23.6349444,5.1683125 23.6718889,5.4105625 23.6718889,5.6528125 C23.6718889,6.00821875 23.6006389,6.31953125 23.4586667,6.5878125 C23.3166944,6.856625 23.1235278,7.08346875 22.8786389,7.26940625 C22.6332222,7.455875 22.3434722,7.59878125 22.0078056,7.69759375 C21.6721389,7.798 21.3069167,7.84740625 20.9110833,7.84740625 L20.20175,7.84740625 C19.9009167,7.84740625 19.6729167,7.87715625 19.5182778,7.93665625 C19.3636389,7.9966875 19.2860556,8.1114375 19.2860556,8.28196875 C19.2860556,8.546 19.4839722,8.67828125 19.8798056,8.67828125 L21.5824167,8.67828125 C22.3645833,8.67828125 22.9746944,8.837125 23.4132778,9.15375 C23.8518611,9.470375 24.0714167,9.94584375 24.0714167,10.579625 C24.0714167,10.8840312 24.0049167,11.1634687 23.8713889,11.4200625 C23.7378611,11.6766562 23.5320278,11.9003125 23.2523056,12.0910312 C22.9725833,12.28175 22.6247778,12.4320937 22.2073056,12.5404687 C21.7903611,12.6488437 21.2984722,12.7030312 20.7305833,12.7030312 C20.1890833,12.7030312 19.7399444,12.6530937 19.3826389,12.55375 C19.0258611,12.4544062 18.7398056,12.32425 18.525,12.1638125 C18.3096667,12.003375 18.15925,11.8153125 18.0732222,11.5985625 C17.9877222,11.3823437 17.9444444,11.1565625 17.9444444,10.9228125 C17.9444444,10.5589062 18.0325833,10.2475937 18.2088611,9.98728125 C18.3851389,9.7275 18.5719722,9.5415625 18.7698889,9.4289375 C18.52025,9.376875 18.3313056,9.26425 18.2025278,9.09159375 C18.0732222,8.91840625 18.0088333,8.70696875 18.0088333,8.4556875 C18.0088333,8.27453125 18.0436667,8.121 18.1122778,7.995625 C18.1808889,7.87025 18.2669167,7.76453125 18.3703611,7.6779375 C18.4732778,7.591875 18.5872778,7.5228125 18.7118333,7.47075 C18.8369167,7.4186875 18.9593611,7.37990625 19.0796944,7.353875 C18.8474722,7.24975 18.6411111,7.06646875 18.4606111,6.8024375 C18.2795833,6.537875 18.1893333,6.172375 18.1893333,5.704875 C18.1893333,5.2894375 18.2669167,4.9345625 18.4220833,4.64025 C18.5761944,4.3459375 18.7809722,4.1058125 19.0348333,3.91934375 C19.2881667,3.7339375 19.5763333,3.59740625 19.8988056,3.5108125 C20.2212778,3.42421875 20.5453333,3.3811875 20.8725556,3.3811875 C21.0963333,3.3811875 21.3174722,3.3960625 21.5370278,3.42634375 C21.7560556,3.456625 21.9518611,3.49328125 22.1239167,3.53684375 L24.2519167,3.53684375 L24.2519167,4.302375 L23.2845,4.302375 L23.2459722,4.32840625 Z" id="Fill-25"></path>
                        <path d="M27.3468056,6.97775 C26.9852778,7.0043125 26.7097778,7.10896875 26.5208333,7.29384375 C26.3324167,7.47925 26.2374167,7.7045 26.2374167,7.9711875 C26.2374167,8.30640625 26.3186944,8.55396875 26.4828333,8.7128125 C26.6453889,8.87165625 26.9124444,8.95134375 27.2818889,8.95134375 C27.5146389,8.95134375 27.7658611,8.89184375 28.0366111,8.77071875 C28.3078889,8.650125 28.5459167,8.49128125 28.7528056,8.29365625 L28.7528056,6.87415625 L27.3468056,6.97775 Z M30.0812222,8.8605 L31.0618333,8.8605 L31.1388889,9.63984375 C31.0528611,9.691375 30.9457222,9.7349375 30.8169444,9.76946875 C30.6876389,9.804 30.5541111,9.83215625 30.4163611,9.8539375 C30.2791389,9.8751875 30.1456111,9.89059375 30.0168333,9.89909375 C29.8880556,9.90759375 29.7798611,9.912375 29.6943611,9.912375 C29.4447222,9.912375 29.2404722,9.86403125 29.0816111,9.76734375 C28.9222222,9.67065625 28.8388333,9.45125 28.8298611,9.109125 C28.8214167,9.109125 28.8171944,9.10753125 28.8171944,9.10275 C28.8171944,9.09796875 28.8124444,9.09584375 28.8045278,9.09584375 C28.5723056,9.30675 28.3485278,9.46878125 28.1337222,9.58246875 C27.9183889,9.6966875 27.7188889,9.78221875 27.5336389,9.83959375 C27.3489167,9.8964375 27.1831944,9.929375 27.037,9.937875 C26.8908056,9.946375 26.7704722,9.9516875 26.676,9.9516875 C26.2970556,9.9516875 25.9877778,9.89059375 25.7476389,9.76946875 C25.5064444,9.64834375 25.3148611,9.49640625 25.1734167,9.31471875 C25.0314444,9.13303125 24.9343333,8.93434375 24.8836667,8.71759375 C24.8314167,8.50190625 24.8055556,8.30215625 24.8055556,8.12046875 C24.8055556,7.8606875 24.8509444,7.6226875 24.9411944,7.40646875 C25.0314444,7.19025 25.1755278,6.99953125 25.3729167,6.83484375 C25.5708333,6.6706875 25.8246944,6.5346875 26.1345,6.4263125 C26.4437778,6.3179375 26.8174444,6.251 27.2565556,6.22496875 L28.7786667,6.12084375 L28.7786667,5.7441875 C28.7786667,5.26871875 28.6884167,4.93084375 28.5079167,4.731625 C28.3268889,4.53240625 27.9959722,4.4330625 27.5146389,4.4330625 C27.2048333,4.4330625 26.8797222,4.46334375 26.5403611,4.52390625 C26.201,4.58446875 25.8806389,4.6668125 25.5798056,4.77040625 C25.5365278,4.62378125 25.4937778,4.476625 25.4510278,4.32946875 C25.40775,4.1823125 25.3644722,4.03515625 25.32225,3.888 C25.6827222,3.72384375 26.0891111,3.5979375 26.5403611,3.51134375 C26.9916111,3.42475 27.4238611,3.3811875 27.8371111,3.3811875 C28.5422222,3.3811875 29.0921667,3.5395 29.488,3.8550625 C29.8833056,4.17115625 30.0812222,4.72790625 30.0812222,5.52371875 L30.0812222,8.8605 Z" id="Fill-27"></path>
                        <path d="M33.1871944,7.9255 L33.22625,8.73034375 C33.3977778,8.8254375 33.6046667,8.892375 33.8453333,8.9316875 C34.086,8.97046875 34.3055556,8.990125 34.5029444,8.990125 C34.8903333,8.990125 35.2191389,8.9274375 35.4898889,8.80153125 C35.7606389,8.67615625 35.8962778,8.4578125 35.8962778,8.14596875 C35.8962778,7.9903125 35.8640833,7.86015625 35.7996944,7.7565625 C35.7347778,7.65296875 35.6466389,7.56371875 35.5352778,7.49040625 C35.4233889,7.41709375 35.2919722,7.353875 35.1415556,7.30234375 C34.9911389,7.25028125 34.8338611,7.19821875 34.6707778,7.1466875 C34.3783889,7.06009375 34.0902222,6.9735 33.8068056,6.88690625 C33.5228611,6.8003125 33.269,6.6876875 33.04575,6.54903125 C32.8219722,6.41090625 32.6414722,6.23984375 32.50425,6.03584375 C32.3659722,5.83290625 32.2973611,5.57046875 32.2973611,5.25065625 C32.2973611,4.9218125 32.3596389,4.64078125 32.4841944,4.40703125 C32.6092778,4.17328125 32.7808056,3.9804375 33.0003611,3.82903125 C33.2199167,3.677625 33.4822222,3.565 33.7872778,3.4916875 C34.0923333,3.418375 34.4258889,3.3811875 34.7868889,3.3811875 C35.1568611,3.3811875 35.5241944,3.418375 35.8899444,3.4916875 C36.2546389,3.565 36.5802778,3.68878125 36.8636944,3.86196875 C36.8636944,4.11271875 36.8658056,4.36559375 36.8705556,4.621125 C36.8737222,4.876125 36.8811111,5.1343125 36.8895556,5.3935625 L35.8704167,5.3935625 L35.8445556,4.5605625 C35.5521667,4.4405 35.2296944,4.381 34.8771389,4.381 C34.5504444,4.381 34.2728333,4.44315625 34.0453611,4.56853125 C33.8168333,4.69390625 33.7033611,4.90746875 33.7033611,5.20975 C33.7033611,5.339375 33.7445278,5.44934375 33.8258056,5.5401875 C33.9076111,5.63103125 34.0110556,5.70859375 34.1356111,5.77340625 C34.2601667,5.83821875 34.3910556,5.89240625 34.5288056,5.9354375 C34.6665556,5.97846875 34.7953333,6.01725 34.9156667,6.05178125 C35.1742778,6.129875 35.4445,6.21009375 35.7284444,6.291375 C36.0123889,6.37371875 36.2725833,6.48740625 36.5090278,6.6345625 C36.7449444,6.78171875 36.9386389,6.97403125 37.0895833,7.2115 C37.24,7.4484375 37.3149444,7.76134375 37.3149444,8.15021875 C37.3149444,8.461 37.2505556,8.73140625 37.1217778,8.95984375 C36.9924722,9.1888125 36.8098611,9.37634375 36.5739444,9.5235 C36.3369722,9.67065625 36.0514444,9.780625 35.7157778,9.85340625 C35.3806389,9.92671875 35.0101389,9.963375 34.6063889,9.963375 C34.2364167,9.963375 33.8326667,9.9315 33.3940833,9.86615625 C32.9555,9.80134375 32.5638889,9.66959375 32.2203056,9.470375 L32.1944444,7.9255 L33.1871944,7.9255 Z" id="Fill-29"></path>
                        <path d="M40.9608333,8.399375 C41.0336667,8.178375 41.1175833,7.919125 41.2125833,7.6205625 C41.3070556,7.32146875 41.4099722,7.00165625 41.5218611,6.65953125 C41.6332222,6.3179375 41.7393056,5.9928125 41.838,5.68575 C41.9366944,5.37815625 42.0248333,5.10615625 42.1024167,4.86815625 C42.18,4.629625 42.2354167,4.46759375 42.2697222,4.381 L41.5091944,4.381 L41.5091944,3.3811875 L44.1918889,3.3811875 L44.1918889,4.381 L43.5601389,4.381 L41.2637778,11.1060937 C41.17775,11.331875 41.0853889,11.5305625 40.9866944,11.70375 C40.8874722,11.8769375 40.76925,12.0214375 40.6315,12.1383125 C40.4942778,12.2557187 40.3290833,12.3465625 40.1359167,12.411375 C39.9416944,12.4761875 39.7031389,12.5085937 39.4197222,12.5085937 C39.3247222,12.5085937 39.1442222,12.4974375 38.8776944,12.4761875 C38.6111667,12.4544062 38.3013611,12.3874687 37.9488056,12.2743125 L38.1556944,11.1841875 C38.3441111,11.2272187 38.5251389,11.2601562 38.6971944,11.2819375 C38.8687222,11.3031875 39.0281111,11.3143437 39.1743056,11.3143437 C39.3811944,11.3143437 39.5421667,11.2883125 39.6582778,11.23625 C39.7738611,11.1841875 39.8715,11.0954687 39.9485556,10.9700937 C40.0256111,10.8441875 40.1031944,10.6757812 40.18025,10.4632812 C40.2578333,10.2513125 40.3612778,9.9814375 40.4900556,9.6520625 L39.8060556,9.6520625 C39.5226389,8.777625 39.2408056,7.90584375 38.9616111,7.0361875 C38.6818889,6.166 38.4005833,5.2894375 38.1161111,4.40703125 L37.4722222,4.40703125 L37.4722222,3.3811875 L39.13525,3.3811875 C39.1700833,3.4853125 39.23025,3.681875 39.3162778,3.9719375 C39.4023056,4.26146875 39.5031111,4.59934375 39.6192222,4.98503125 C39.7358611,5.36965625 39.8577778,5.77446875 39.9870833,6.19840625 C40.1158611,6.622875 40.2340833,7.01865625 40.34175,7.38628125 C40.4488889,7.7544375 40.5417778,8.07053125 40.6193611,8.3345625 C40.6964167,8.59859375 40.7433889,8.76115625 40.7608056,8.8211875 L40.8251944,8.8211875 C40.8426111,8.76115625 40.8874722,8.620375 40.9608333,8.399375" id="Fill-31"></path>
                        <path d="M49.2981389,3.3811875 C49.7536111,3.3811875 50.1109167,3.4576875 50.3684722,3.6085625 C50.6270833,3.75996875 50.8181389,3.9443125 50.9426944,4.16 C51.06725,4.37675 51.1448333,4.608375 51.1749167,4.85540625 C51.205,5.10190625 51.2203056,5.316 51.2203056,5.4976875 L51.2203056,8.88653125 L52.1745278,8.88653125 L52.1745278,9.70465625 C51.9940278,9.79125 51.7792222,9.8539375 51.5301111,9.89271875 C51.2804722,9.9315 51.0693611,9.95115625 50.8978333,9.95115625 C50.63975,9.95115625 50.4418333,9.91025 50.3040833,9.82790625 C50.1663333,9.7455625 50.0634167,9.64834375 49.9948056,9.5351875 C49.9256667,9.423625 49.8850278,9.311 49.8723611,9.19784375 C49.8591667,9.08575 49.8528333,8.99490625 49.8528333,8.92584375 L49.8528333,5.75746875 C49.8528333,5.54125 49.8396389,5.35478125 49.8143056,5.199125 C49.7884444,5.0429375 49.7409444,4.9133125 49.6723333,4.8091875 C49.6031944,4.70559375 49.5002778,4.6275 49.3630556,4.57596875 C49.2247778,4.52390625 49.0485,4.49840625 48.8342222,4.49840625 C48.5671667,4.49840625 48.2768889,4.5584375 47.9633889,4.68009375 C47.6493611,4.80121875 47.37175,4.93509375 47.1310833,5.08278125 L47.1310833,9.8730625 L45.7641389,9.8730625 L45.7641389,4.510625 L44.8611111,4.510625 L44.8611111,3.524625 L47.1310833,3.524625 L47.1310833,4.0824375 L47.196,4.0951875 C47.557,3.86196875 47.918,3.68453125 48.279,3.56340625 C48.6405278,3.44228125 48.9798889,3.3811875 49.2981389,3.3811875" id="Fill-33"></path>
                        <path d="M54.5331667,1.7874375 L54.5331667,3.46246875 L56.4030833,3.46246875 L56.4030833,4.46228125 L54.5199722,4.46228125 L54.5199722,7.7629375 C54.5199722,7.9265625 54.5310556,8.07159375 54.5521667,8.1964375 C54.5738056,8.3218125 54.6144444,8.42753125 54.6751389,8.51359375 C54.7347778,8.6001875 54.8208056,8.667125 54.9332222,8.71440625 C55.0445833,8.7616875 55.195,8.7850625 55.3839444,8.7850625 C55.5306667,8.7850625 55.7006111,8.7723125 55.8937778,8.7468125 C56.0874722,8.72078125 56.3043889,8.67296875 56.5455833,8.60390625 L56.7514167,9.538375 C56.5017778,9.651 56.2246944,9.73759375 55.9196389,9.79815625 C55.6140556,9.85871875 55.3285278,9.889 55.062,9.889 C54.7004722,9.889 54.3964722,9.85021875 54.1484167,9.77265625 C53.9014167,9.69509375 53.7040278,9.58246875 53.55625,9.43584375 C53.4095278,9.28921875 53.3050278,9.1123125 53.2443333,8.90459375 C53.1831111,8.69740625 53.1530278,8.46471875 53.1530278,8.20546875 L53.1530278,4.46228125 L52.25,4.46228125 L52.25,3.673375 L53.2179444,3.37109375 L53.6085,1.9043125 L54.5331667,1.7874375 Z" id="Fill-35"></path>
                    </g>
                    <path d="M41.0120278,41.48425 C40.0250833,41.0874062 39.3263056,40.1162812 39.3263056,38.983125 L39.3263056,20.0015625 C39.3263056,16.7014375 37.4289444,13.8385312 34.675,12.4599375 L40.1100556,6.989125 C40.6151389,6.48071875 41.287,6.20075 42.0005556,6.20075 C43.4751667,6.20075 44.6748056,7.4088125 44.6748056,8.89259375 L44.6748056,27.873625 C44.6748056,30.5776875 46.1071944,33.1404375 48.6706111,33.7758125 L41.0120278,41.48425 Z M33.6384444,31.2231562 L28.2899444,36.6063125 L28.2899444,20.0015625 C28.2899444,18.5177812 29.4895833,17.3097187 30.9636667,17.3097187 C32.4388056,17.3097187 33.6384444,18.5177812 33.6384444,20.0015625 L33.6384444,31.2231562 Z M22.6010278,20.0015625 L22.6010278,38.983125 C22.6010278,40.4669062 21.4019167,41.6749687 19.9273056,41.6749687 C18.4532222,41.6749687 17.2530556,40.4669062 17.2530556,38.983125 L17.2530556,20.0015625 C17.2530556,16.7014375 15.3546389,13.8395937 12.6006944,12.461 L18.0362778,6.989125 C18.5418889,6.48071875 19.2126944,6.20075 19.9273056,6.20075 C21.4019167,6.20075 22.6010278,7.4088125 22.6010278,8.89259375 L22.6010278,20.0015625 Z M11.5651944,34.4765312 L6.21669444,39.8602187 L6.21669444,20.0015625 C6.21669444,18.5177812 7.41580556,17.3097187 8.89041667,17.3097187 C10.3650278,17.3097187 11.5651944,18.5177812 11.5651944,20.0015625 L11.5651944,34.4765312 Z M56.16875,30.5654687 L53.0369167,30.5654687 C51.5628333,30.5654687 50.3631944,29.3584687 50.3631944,27.873625 L50.3631944,8.89259375 C50.3631944,4.25159375 46.61175,0.4749375 42.0005556,0.4749375 C39.7675278,0.4749375 37.6675,1.3504375 36.0878611,2.94046875 L28.2899444,10.7896875 L28.2899444,8.89259375 C28.2899444,4.25159375 24.5385,0.4749375 19.9273056,0.4749375 C17.69375,0.4749375 15.5937222,1.3504375 14.0140833,2.94046875 L2.97772222,14.0494375 L2.98036111,14.052625 C1.46616667,15.5767812 0.527777778,17.6810625 0.527777778,20.0015625 L0.527777778,47.4007812 L4.55102778,47.4007812 L11.6591389,40.245375 C12.2650278,44.2897812 15.7425556,47.4007812 19.9273056,47.4007812 C22.2326389,47.4007812 24.3236944,46.4562187 25.8378889,44.9320625 L25.8405278,44.93525 L33.6384444,37.0855 L33.6384444,38.983125 C33.6384444,43.624125 37.3893611,47.4007812 42.0005556,47.4007812 L43.1785556,47.4007812 L56.16875,34.325125 L56.16875,30.5654687 Z" id="Fill-37" fill="#BC814C"></path>
                </g>
            </g>
        </g>
    </g>
</svg>