<svg width="50" height="50" viewBox="0 0 50 50" fill="none" xmlns="http://www.w3.org/2000/svg">
<rect x="0.251282" y="21.4644" width="1" height="40" rx="0.5" transform="rotate(-45 0.251282 21.4644)" fill="white"/>
<rect x="4.4939" y="17.2217" width="1" height="40" rx="0.5" transform="rotate(-45 4.4939 17.2217)" fill="white"/>
<rect x="8.73651" y="12.9792" width="1" height="40" rx="0.5" transform="rotate(-45 8.73651 12.9792)" fill="white"/>
<rect x="12.2721" y="9.4436" width="1" height="40" rx="0.5" transform="rotate(-45 12.2721 9.4436)" fill="white"/>
<rect x="16.5147" y="5.20093" width="1" height="40" rx="0.5" transform="rotate(-45 16.5147 5.20093)" fill="white"/>
<rect x="20.7574" y="0.958252" width="1" height="40" rx="0.5" transform="rotate(-45 20.7574 0.958252)" fill="white"/>
<rect x="28.5356" y="0.251221" width="1" height="40" rx="0.5" transform="rotate(45 28.5356 0.251221)" fill="white"/>
<rect x="32.7781" y="4.4939" width="1" height="40" rx="0.5" transform="rotate(45 32.7781 4.4939)" fill="white"/>
<rect x="37.0208" y="8.73657" width="1" height="40" rx="0.5" transform="rotate(45 37.0208 8.73657)" fill="white"/>
<rect x="40.5563" y="12.272" width="1" height="40" rx="0.5" transform="rotate(45 40.5563 12.272)" fill="white"/>
<rect x="44.799" y="16.5146" width="1" height="40" rx="0.5" transform="rotate(45 44.799 16.5146)" fill="white"/>
<rect x="49.0416" y="20.7573" width="1" height="40" rx="0.5" transform="rotate(45 49.0416 20.7573)" fill="white"/>
</svg>
